<svg width="1158" height="354" viewBox="0 0 1158 354" fill="none" xmlns="http://www.w3.org/2000/svg">
<path d="M387.175 241.937V136.796H403.75V149.931H406.774C408.809 146.212 412.066 142.782 416.661 139.586C421.255 136.447 427.711 134.878 436.027 134.878C444.344 134.878 450.857 136.68 455.917 140.225C461.035 143.829 464.699 148.188 467.025 153.36H470.049C472.492 148.188 476.156 143.829 481.099 140.225C486.043 136.622 492.963 134.878 501.862 134.878C508.899 134.878 515.063 136.331 520.356 139.179C525.648 142.027 529.835 146.153 532.918 151.559C536 156.906 537.512 163.357 537.512 170.797V241.995H520.53V172.308C520.53 165.275 518.495 159.754 514.424 155.627C510.353 151.501 504.653 149.524 497.325 149.524C489.59 149.524 483.251 152.024 478.308 157.022C473.364 162.021 470.864 169.286 470.864 178.759V241.995H453.882V172.308C453.882 165.275 451.846 159.754 447.775 155.627C443.704 151.559 438.005 149.524 430.677 149.524C422.942 149.524 416.603 152.024 411.659 157.022C406.716 162.021 404.215 169.286 404.215 178.759V241.995H387.233L387.175 241.937Z" fill="#006BF4"/>
<path d="M610.904 244.966C601.716 244.966 593.399 242.815 585.839 238.514C578.336 234.213 572.288 227.994 567.868 219.799C563.448 211.604 561.18 201.956 561.18 190.797V188.007C561.18 176.673 563.39 167.025 567.868 159.004C572.288 150.984 578.336 144.765 585.955 140.406C593.574 136.047 601.89 133.838 610.904 133.838C621.78 133.838 630.271 135.93 636.319 140.057C642.368 144.242 646.788 148.949 649.637 154.238H652.662V136.802H669.237V221.078C669.237 225.379 671.214 227.529 675.285 227.529H684.939V241.944H668.829C664.119 241.944 660.28 240.549 657.431 237.759C654.581 234.969 653.127 231.075 653.127 226.018V223.635H650.335C647.486 229.215 643.007 234.155 636.901 238.456C630.794 242.757 622.187 244.908 610.963 244.908L610.904 244.966ZM615.441 229.912C626.316 229.912 635.214 226.425 642.019 219.509C648.823 212.534 652.255 202.828 652.255 190.39V188.472C652.255 175.976 648.823 166.27 642.019 159.353C635.214 152.379 626.316 148.949 615.441 148.949C604.565 148.949 595.842 152.437 588.863 159.353C581.884 166.328 578.453 176.034 578.453 188.472V190.39C578.453 202.886 581.942 212.592 588.863 219.509C595.842 226.483 604.682 229.912 615.441 229.912Z" fill="#006BF4"/>
<path d="M714.429 284.952V269.899H774.68C778.868 269.899 780.903 267.749 780.903 263.448V225.146H777.879C776.425 228.168 774.273 231.132 771.307 234.096C768.341 237.061 764.503 239.385 759.792 241.187C755.081 242.989 749.091 243.861 741.938 243.861C734.319 243.861 727.34 242.233 720.943 238.92C714.545 235.607 709.544 230.725 705.88 224.274C702.216 217.822 700.413 209.918 700.413 200.618V136.743H717.395V199.34C717.395 209.685 720.012 217.183 725.246 221.891C730.481 226.599 737.518 228.982 746.416 228.982C756.477 228.982 764.735 225.669 771.191 219.101C777.646 212.533 780.845 202.711 780.845 189.634V136.743H797.827V266.412C797.827 272.166 796.199 276.641 793 279.954C789.801 283.267 785.091 284.894 778.926 284.894H714.371L714.429 284.952Z" fill="#006BF4"/>
<path d="M872.092 244.966C862.903 244.966 854.587 242.815 847.026 238.514C839.524 234.213 833.475 227.994 829.055 219.799C824.635 211.604 822.367 201.956 822.367 190.797V188.007C822.367 176.673 824.577 167.025 829.055 159.004C833.475 150.984 839.524 144.765 847.142 140.406C854.761 136.047 863.078 133.838 872.092 133.838C882.967 133.838 891.458 135.93 897.507 140.057C903.555 144.242 907.975 148.949 910.825 154.238H913.849V136.802H930.424V221.078C930.424 225.379 932.401 227.529 936.472 227.529H946.127V241.944H930.017C925.306 241.944 921.468 240.549 918.618 237.759C915.768 234.969 914.314 231.075 914.314 226.018V223.635H911.523C908.673 229.215 904.195 234.155 898.088 238.456C891.982 242.757 883.374 244.908 872.15 244.908L872.092 244.966ZM876.628 229.912C887.504 229.912 896.402 226.425 903.206 219.509C910.011 212.534 913.442 202.828 913.442 190.39V188.472C913.442 175.976 910.011 166.27 903.206 159.353C896.402 152.379 887.504 148.949 876.628 148.949C865.753 148.949 857.029 152.437 850.05 159.353C843.071 166.328 839.64 176.034 839.64 188.472V190.39C839.64 202.886 843.129 212.592 850.05 219.509C857.029 226.483 865.869 229.912 876.628 229.912Z" fill="#006BF4"/>
<path d="M970.206 241.937V136.796H986.781V154.639H989.805C992.073 149.641 996.028 145.049 1001.55 140.981C1007.08 136.912 1015.22 134.878 1025.98 134.878C1033.89 134.878 1040.93 136.505 1047.15 139.818C1053.37 143.131 1058.37 148.013 1062.1 154.465C1065.82 160.916 1067.68 168.879 1067.68 178.353V241.995H1050.7V179.631C1050.7 169.169 1048.08 161.556 1042.84 156.848C1037.61 152.14 1030.52 149.757 1021.68 149.757C1011.5 149.757 1003.18 153.07 996.842 159.638C990.445 166.263 987.246 176.028 987.246 189.105V241.995H970.264L970.206 241.937Z" fill="#006BF4"/>
<rect x="97.6299" y="89.54" width="204.961" height="43.9202" fill="#006BF4"/>
<rect x="146.436" y="146.946" width="117.12" height="48.8002" transform="rotate(90 146.436 146.946)" fill="#006BF4"/>
<rect x="224.336" y="171.521" width="93.164" height="48.4453" transform="rotate(90 224.336 171.521)" fill="#006BF4"/>
<rect x="302.597" y="146.946" width="117.12" height="48.8002" transform="rotate(90 302.597 146.946)" fill="#006BF4"/>
</svg>
